<!--?xml version="1.0" standalone="no"?-->
              <svg id="sw-js-blob-svg" viewBox="0 0 100 100" xmlns="http://www.w3.org/2000/svg" version="1.1">
                    <defs> 
                        <linearGradient id="sw-gradient" x1="0" x2="1" y1="1" y2="0">
                            <stop id="stop1" stop-color="rgba(213, 195, 186, 0.4)" offset="0%"></stop>
                            <stop id="stop2" stop-color="rgba(213, 195, 186, 0.4)" offset="100%"></stop>
                        </linearGradient>
                    </defs>
                <path fill="url(#sw-gradient)" d="M11.8,-14C18.7,-16.3,30.3,-20.3,37.2,-18.2C44,-16.1,46.2,-8.1,45.5,-0.4C44.8,7.3,41.3,14.6,34.8,17.2C28.2,19.8,18.7,17.8,12.3,15.9C6,14.1,3,12.6,0.2,12.3C-2.7,12,-5.4,13.1,-12.2,15.1C-18.9,17.2,-29.6,20.2,-30.8,17.9C-32.1,15.5,-23.8,7.8,-21.3,1.4C-18.8,-4.9,-22,-9.7,-22.9,-15.7C-23.8,-21.8,-22.3,-29,-18.1,-28.2C-13.9,-27.5,-7,-18.8,-2.3,-14.8C2.4,-10.8,4.8,-11.6,11.8,-14Z" width="100%" height="100%" transform="translate(50 50)" stroke-width="0" style="transition: 0.3s;"></path>
              </svg>